{"title":"Man of Steel (2013) 4K UltraHD BluRay (x265 HEVC 10bit) [Zeus]","uid":15544793,"size":65390726820,"categoryP":"video","categoryS":"movies","magnet":"?xt=urn:btih:31691bef7994dd515406f880575255e749bda3cb&amp;dn=Man+of+Steel+%282013%29+4K+UltraHD+BluRay+%28x265+HEVC+10bit%29+%5BZeus%5D&amp;tr=udp%3A%2F%2Ftracker.leechers-paradise.org%3A6969&amp;tr=udp%3A%2F%2Fzer0day.ch%3A1337&amp;tr=udp%3A%2F%2Fopen.demonii.com%3A1337&amp;tr=udp%3A%2F%2Ftracker.coppersurfer.tk%3A6969&amp;tr=udp%3A%2F%2Fexodus.desync.com%3A6969","seeders":8,"leechers":23,"uploader":"KATZeus","files":1,"time":1470959098,"description":"Format                                   : Matroska\r\nFormat version                           : Version 2\r\nFile size                                : 65.6 GiB\r\nDuration                                 : 2h 31mn\r\nOverall bit rate                         : 61.9 Mbps\r\nEncoded date                             : UTC 2016-07-19T22:47:13Z\r\nWriting application                      : HandBrake 20160604111422-9206444-master 2016060501\r\nWriting library                          : Lavf56.1.0 / Lavf56.1.0\r\n\r\nVideo\r\nID                                       : 1\r\nFormat                                   : HEVC\r\nFormat/Info                              : High Efficiency Video Coding\r\nFormat profile                           : Main   @Main\r\nCodec ID                                 : V_MPEGH/ISO/HEVC\r\nDuration                                 : 2h 31mn\r\nBit rate                                 : 60.1 Mbps\r\nWidth                                    : 3 840 pixels\r\nHeight                                   : 2 160 pixels\r\nDisplay aspect ratio                     : 16:9\r\nFrame rate mode                          : Constant\r\nFrame rate                               : 23.976 (24000/1001) fps\r\nColor space                              : YUV\r\nChroma subsampling                       : 4:2:0\r\nBit depth                                : 10 bits\r\nBits/(Pixel*Frame)                       : 0.302\r\nStream size                              : 63.6 GiB (97%)\r\nWriting library                          : x265 1.9+3-63308f7658c3:[Windows][GCC 5.2.0][64 bit] 10bit\r\nEncoding settings                        : wpp / ctu=64 / min-cu-size=8 / max-tu-size=32 / tu-intra-depth=1 / tu-inter-depth=1 / me=1 / subme=2 / merange=57 / no-rect / no-amp / max-merge=2 / temporal-mvp / no-early-skip / rdpenalty=0 / no-tskip / no-tskip-fast / strong-intra-smoothing / no-lossless / no-cu-lossless / no-constrained-intra / no-fast-intra / open-gop / no-temporal-layers / interlace=0 / keyint=240 / min-keyint=24 / scenecut=40 / rc-lookahead=20 / lookahead-slices=8 / bframes=4 / bframe-bias=0 / b-adapt=2 / ref=3 / limit-refs=3 / no-limit-modes / weightp / no-weightb / aq-mode=1 / qg-size=32 / aq-strength=1.00 / cbqpoffs=0 / crqpoffs=0 / rd=3 / psy-rd=2.00 / rdoq-level=0 / psy-rdoq=0.00 / signhide / deblock / sao / no-sao-non-deblock / b-pyramid / cutree / no-intra-refresh / rc=abr / bitrate=61000 / qcomp=0.60 / qpmin=0 / qpmax=51 / qpstep=4 / ipratio=1.40 / pbratio=1.30\r\nDefault                                  : Yes\r\nForced                                   : No\r\nColor range                              : Limited\r\nColor primaries                          : BT.709\r\nTransfer characteristics                 : BT.709\r\nMatrix coefficients                      : BT.601\r\n\r\nAudio\r\nID                                       : 2\r\nFormat                                   : AC-3\r\nFormat/Info                              : Audio Coding 3\r\nMode extension                           : CM (complete main)\r\nFormat settings, Endianness              : Big\r\nCodec ID                                 : A_AC3\r\nDuration                                 : 2h 31mn\r\nBit rate mode                            : Constant\r\nBit rate                                 : 640 Kbps\r\nChannel(s)                               : 2 channels\r\nChannel positions                        : Front: L R\r\nSampling rate                            : 48.0 KHz\r\nFrame rate                               : 31.250 fps (1536 spf)\r\nCompression mode                         : Lossy\r\nDelay relative to video                  : -5ms\r\nStream size                              : 694 MiB (1%)\r\nTitle                                    : Stereo\r\nDefault                                  : Yes\r\nForced                                   : No","torrent":{"xt":"urn:btih:31691bef7994dd515406f880575255e749bda3cb","amp;dn":"Man+of+Steel+%282013%29+4K+UltraHD+BluRay+%28x265+HEVC+10bit%29+%5BZeus%5D","amp;tr":["udp%3A%2F%2Ftracker.leechers-paradise.org%3A6969","udp%3A%2F%2Fzer0day.ch%3A1337","udp%3A%2F%2Fopen.demonii.com%3A1337","udp%3A%2F%2Ftracker.coppersurfer.tk%3A6969","udp%3A%2F%2Fexodus.desync.com%3A6969"],"infoHash":"31691bef7994dd515406f880575255e749bda3cb","infoHashBuffer":{"type":"Buffer","data":[49,105,27,239,121,148,221,81,84,6,248,128,87,82,85,231,73,189,163,203]},"announce":[],"urlList":[]}}